<?xml version="1.0" standalone="no"?>
<!DOCTYPE svg PUBLIC "-//W3C//DTD SVG 20010904//EN"
 "http://www.w3.org/TR/2001/REC-SVG-20010904/DTD/svg10.dtd">
<svg version="1.0" xmlns="http://www.w3.org/2000/svg"
 width="1125.000000pt" height="1125.000000pt" viewBox="0 0 1125.000000 1125.000000"
 preserveAspectRatio="xMidYMid meet">
<metadata>
Created by potrace 1.14, written by Peter Selinger 2001-2017
</metadata>
<g transform="translate(0.000000,1125.000000) scale(0.100000,-0.100000)"
fill="#000000" stroke="none">
<path d="M4413 8641 c-106 -39 -179 -107 -231 -218 l-27 -58 -3 -632 -3 -632
-632 -3 -633 -3 -76 -37 c-91 -45 -147 -103 -191 -196 l-32 -67 0 -1171 0
-1170 37 -76 c45 -91 103 -147 196 -191 l67 -32 632 -3 632 -3 3 -632 3 -632
32 -67 c39 -84 109 -155 188 -194 l60 -29 1190 0 1190 0 58 28 c80 40 151 112
190 194 l32 68 3 632 3 632 632 3 633 3 76 37 c91 45 147 103 191 196 l32 67
0 1170 0 1170 -32 67 c-44 93 -100 151 -191 196 l-76 37 -633 3 -632 3 -3 632
-3 632 -32 67 c-39 84 -109 155 -188 194 l-60 29 -1175 2 c-1126 2 -1177 2
-1227 -16z m1897 -1416 l5 -640 32 -61 c59 -114 161 -191 282 -214 32 -6 288
-10 647 -10 l594 0 0 -675 0 -675 -594 0 c-359 0 -615 -4 -647 -10 -121 -23
-223 -100 -282 -214 l-32 -61 -5 -640 -5 -640 -680 0 -680 0 -5 640 -5 640
-32 61 c-59 114 -161 191 -282 214 -32 6 -288 10 -647 10 l-594 0 0 675 0 675
594 0 c359 0 615 4 647 10 121 23 223 100 282 214 l32 61 3 630 c1 347 4 636
7 643 3 10 145 12 682 10 l678 -3 5 -640z"/>
<path d="M5298 6547 c-21 -12 -46 -33 -55 -47 -9 -13 -81 -162 -159 -330
l-143 -305 -269 -5 -269 -5 -40 -27 c-97 -64 -111 -225 -27 -299 55 -48 63
-49 429 -49 433 0 411 -7 498 165 25 50 46 85 46 78 1 -6 35 -217 76 -469 82
-506 84 -513 165 -554 47 -24 138 -27 178 -6 53 28 82 75 233 384 84 171 155
312 159 312 4 0 30 -55 59 -122 30 -69 67 -137 84 -155 62 -65 165 -80 239
-35 23 14 87 98 197 257 l162 235 32 -22 c31 -23 38 -23 329 -26 283 -3 299
-2 338 18 113 58 132 224 35 309 -51 44 -90 51 -305 51 l-195 0 -55 73 c-85
111 -177 145 -269 97 -49 -24 -61 -39 -206 -253 -66 -97 -122 -176 -125 -176
-3 0 -36 72 -75 161 -47 109 -80 172 -102 194 -69 69 -187 70 -261 1 -13 -12
-78 -130 -145 -262 -66 -132 -121 -235 -123 -230 -2 6 -38 217 -79 470 -41
253 -78 468 -81 478 -9 27 -63 86 -95 103 -44 22 -137 18 -181 -9z"/>
</g>
</svg>
